# xmcd
#
# Track frame offsets:
#	150
#	16138
#	35567
#	56932
#	79102
#	94839
#	113820
#	128854
#	147293
#	167659
#	186213
#	205080
#
# Disc length: 3009 seconds
#
# Revision: 0
# Processed by: cddbd v1.5.2PL0 Copyright (c) Steve Scherf et al.
# Submitted via: EasyCDDAExtractor 10.2.0.1
#
DISCID=a30bbf0c
DTITLE=O Cooper
DYEAR=2004
DGENRE=Soul
TTITLE0=On Tonight
TTITLE1=Baby I Love You
TTITLE2=O Life feat E-40
TTITLE3=Marry U
TTITLE4=Ooh Baby
TTITLE5=Miss You
TTITLE6=Mary Jane 
TTITLE7=I Will
TTITLE8=Call Me
TTITLE9=Putty Pie
TTITLE10=Freak You
TTITLE11=Sunshine
EXTD=
EXTT0=
EXTT1=
EXTT2=
EXTT3=
EXTT4=
EXTT5=
EXTT6=
EXTT7=
EXTT8=
EXTT9=
EXTT10=
EXTT11=
PLAYORDER=
